<svg xmlns="http://www.w3.org/2000/svg" width="480" height="360" viewBox="0 0 480 360">
    <g fill="none" fill-rule="evenodd">
        <g>
            <g>
                <g>
                    <g>
                        <path d="M0 0H480V360H0z" transform="translate(-760 -180) translate(760 180)"/>
                        <g fill-rule="nonzero">
                            <path fill="#FFF" d="M1.207 7.53v54.52c0 8.132 12.675 8.132 12.675 0V7.53c0-8.283-12.675-8.283-12.675 0z" transform="translate(-760 -180) translate(760 180) translate(289.814 205.991)"/>
                            <path fill="#141414" d="M7.545 69.279c-3.773 0-7.545-2.56-7.545-7.38V7.379C0 2.56 3.772 0 7.545 0c3.772 0 7.544 2.56 7.544 7.38v54.519c0 4.82-3.772 7.38-7.544 7.38zm0-66.719c-2.566 0-5.13 1.506-5.13 4.97v54.52c0 3.463 2.564 4.97 5.13 4.97 2.565 0 5.13-1.507 5.13-4.97V7.53c0-3.464-2.565-4.97-5.13-4.97z" transform="translate(-760 -180) translate(760 180) translate(289.814 205.991)"/>
                        </g>
                        <g fill-rule="nonzero">
                            <path fill="#FFF" d="M1.358 20.784V15.21c0-7.831 6.338-14.157 14.184-14.157h81.03c7.846 0 14.184 6.326 14.184 14.157v5.573" transform="translate(-760 -180) translate(760 180) translate(232.927 300.12)"/>
                            <path fill="#141414" d="M111.812 20.784h-2.414V15.21c0-7.078-5.734-12.952-12.977-12.952H15.39C8.3 2.26 2.414 7.982 2.414 15.211v5.573H0V15.21C0 6.777 6.941 0 15.24 0h81.03c8.45 0 15.24 6.928 15.24 15.211v5.573h.302z" transform="translate(-760 -180) translate(760 180) translate(232.927 300.12)"/>
                        </g>
                        <g fill-rule="nonzero">
                            <path fill="#FFF" d="M20.672 10.844c0 5.27-4.376 9.638-9.657 9.638s-9.657-4.367-9.657-9.638c0-5.272 4.376-9.64 9.657-9.64s9.657 2.41 9.657 9.64z" transform="translate(-760 -180) translate(760 180) translate(223.42 310.06)"/>
                            <path fill="#141414" d="M10.864 21.687C4.83 21.687 0 16.867 0 10.844 0 4.819 4.829 0 10.864 0 17.956 0 21.73 3.916 21.73 10.844c.15 6.024-4.829 10.843-10.865 10.843zm0-19.277c-4.677 0-8.45 3.765-8.45 8.434 0 4.668 3.773 8.434 8.45 8.434 4.678 0 8.45-3.766 8.45-8.434.151-5.723-2.716-8.434-8.45-8.434z" transform="translate(-760 -180) translate(760 180) translate(223.42 310.06)"/>
                        </g>
                        <g fill-rule="nonzero">
                            <path fill="#FFF" d="M20.522 10.844c0 5.27-4.376 9.638-9.658 9.638-5.28 0-9.657-4.367-9.657-9.638 0-5.272 4.376-9.64 9.657-9.64 5.432 0 9.658 2.41 9.658 9.64z" transform="translate(-760 -180) translate(760 180) translate(278.044 310.06)"/>
                            <path fill="#141414" d="M10.864 21.687C4.83 21.687 0 16.867 0 10.844 0 4.819 4.829 0 10.864 0 17.956 0 21.73 3.916 21.73 10.844c0 6.024-4.829 10.843-10.865 10.843zm0-19.277c-4.677 0-8.45 3.765-8.45 8.434 0 4.668 3.773 8.434 8.45 8.434 4.678 0 8.45-3.766 8.45-8.434.151-5.723-2.716-8.434-8.45-8.434z" transform="translate(-760 -180) translate(760 180) translate(278.044 310.06)"/>
                        </g>
                        <g fill-rule="nonzero">
                            <path fill="#FFF" d="M20.522 10.844c0 5.27-4.376 9.638-9.658 9.638-5.28 0-9.657-4.367-9.657-9.638 0-5.272 4.376-9.64 9.657-9.64 5.432 0 9.658 2.41 9.658 9.64z" transform="translate(-760 -180) translate(760 180) translate(332.668 310.06)"/>
                            <path fill="#141414" d="M10.864 21.687C4.83 21.687 0 16.867 0 10.844 0 4.819 4.829 0 10.864 0 17.956 0 21.73 3.916 21.73 10.844c0 6.024-4.829 10.843-10.865 10.843zm0-19.277c-4.677 0-8.45 3.765-8.45 8.434 0 4.668 3.773 8.434 8.45 8.434 4.678 0 8.45-3.766 8.45-8.434 0-5.723-2.716-8.434-8.45-8.434z" transform="translate(-760 -180) translate(760 180) translate(332.668 310.06)"/>
                        </g>
                        <g fill-rule="nonzero">
                            <path fill="#FFF" d="M132.183 40.362H19.767c-10.26 0-18.56-8.283-18.56-18.524V19.88c0-10.241 8.3-18.525 18.56-18.525h112.416c10.26 0 18.56 8.284 18.56 18.525v1.958c.15 10.241-8.3 18.524-18.56 18.524z" transform="translate(-760 -180) translate(760 180) translate(202.9 179.936)"/>
                            <path fill="#141414" d="M131.277 41.567H20.823C9.355 41.567 0 32.23 0 20.784 0 9.338 9.355 0 20.823 0h110.454c11.468 0 20.824 9.338 20.824 20.784 0 11.596-9.356 20.783-20.824 20.783zM20.823 2.56c-10.11 0-18.409 8.284-18.409 18.374 0 10.09 8.3 18.374 18.41 18.374h110.453c10.11 0 18.41-8.283 18.41-18.374 0-10.09-8.3-18.374-18.41-18.374H20.823z" transform="translate(-760 -180) translate(760 180) translate(202.9 179.936)"/>
                        </g>
                        <g fill-rule="nonzero">
                            <path fill="#FFF" d="M69.713 86.297H31.386c-16.598 0-30.179-13.404-30.179-30.121v-24.7c0-16.566 13.43-30.12 30.179-30.12h38.327c16.598 0 30.178 13.403 30.178 30.12v24.7c0 16.566-13.58 30.121-30.178 30.121z" transform="translate(-760 -180) translate(760 180) translate(253.901 59)"/>
                            <path fill="#141414" d="M68.053 87.502H33.046C14.788 87.502 0 72.742 0 54.519V32.983C0 14.759 14.788 0 33.046 0h35.007c18.258 0 33.046 14.76 33.046 32.983v21.536c0 18.223-14.939 32.983-33.046 32.983zM33.046 2.56c-16.9 0-30.632 13.705-30.632 30.573V54.52c0 16.868 13.732 30.573 30.632 30.573h35.007c16.9 0 30.631-13.705 30.631-30.573V32.983c0-16.868-13.731-30.573-30.631-30.573H33.046v.15z" transform="translate(-760 -180) translate(760 180) translate(253.901 59)"/>
                        </g>
                    </g>
                    <g fill-rule="nonzero">
                        <g>
                            <path fill="#FFF" d="M113.17 10.542c-4.225 16.266-76.201 34.79-80.577 68.225-4.074 31.326 6.64 84.941-3.169 92.773-13.278 10.693-25.048 1.958-28.217 16.868l69.26 16.867s8.752-42.621 15.09-107.532c66.09-31.778 85.103-96.388 85.103-96.388l-57.49 9.187z" transform="translate(-760 -180) translate(760 180) translate(127 103.127) translate(0 31.025)"/>
                            <path fill="#141414" d="M71.523 206.781L0 189.311l.302-1.054c1.961-9.187 7.243-10.241 13.278-11.295 4.527-.904 9.808-1.808 15.24-6.175 5.131-4.217 4.075-23.796 2.868-44.58-.906-16.717-1.962-33.886-.151-47.59 2.716-20.634 30.028-35.544 52.058-47.592 13.882-7.53 26.859-14.76 28.519-20.784l.15-.753L172.32 0l-.603 1.807c-.151.603-19.767 65.212-85.104 96.84-6.187 63.856-14.939 106.628-14.939 107.08l-.15 1.054zM2.867 187.504l66.846 16.265c1.509-7.38 9.204-48.043 14.787-106.177v-.602l.604-.301C143.65 68.526 165.228 13.555 169 2.862l-54.775 8.735c-2.414 6.777-14.335 13.253-29.424 21.536C63.224 44.88 36.516 59.49 33.951 79.068c-1.81 13.404-.754 30.422.15 47.14 1.208 22.29 2.415 41.567-3.771 46.537-6.036 4.819-11.77 5.873-16.297 6.626-5.734.904-9.506 1.506-11.166 8.133z" transform="translate(-760 -180) translate(760 180) translate(127 103.127) translate(0 31.025)"/>
                        </g>
                        <path fill="#141414" d="M113.17 41.567c-4.225 16.266-76.201 34.79-80.577 68.224-2.867 21.386-4.98 68.978-5.13 89.46 11.166 1.958 51.152 8.585 54.623 9.488 2.565-17.47 4.376-53.013 3.32-79.82C151.497 97.14 170.51 32.53 170.51 32.53l-57.34 9.036z" transform="translate(-760 -180) translate(760 180) translate(127 103.127)"/>
                        <g>
                            <path fill="#FFF" d="M33.028 30.422c5.583 15.814-43.76 71.237-28.67 101.508 14.033 28.314 52.964 66.719 49.191 78.918-5.13 16.265-19.616 15.512-14.033 29.67l66.846-24.399s-17.051-42.923-48.135-100.303C109.38 71.688 86.897 35.543 81.163 2.108L33.028 30.422z" transform="translate(-760 -180) translate(760 180) translate(127 103.127) translate(107.756)"/>
                            <path fill="#141414" d="M38.762 241.873l-.453-1.055c-3.621-8.735.302-12.5 4.678-16.868 3.32-3.162 7.092-6.927 9.204-13.705 1.962-6.325-9.959-21.988-22.483-38.555C19.598 158.286 9.187 144.581 3 132.382c-9.355-18.675 5.13-46.236 16.598-68.525 7.243-14.007 14.184-27.11 12.072-32.983l-.302-.903L81.918 0l.301 1.657c1.056 5.873 2.414 11.596 4.074 17.771 7.092 28.013 15.24 59.79-26.557 96.388 30.48 56.477 47.531 99.098 47.682 99.55l.453 1.205-69.11 25.302zM34.386 30.874c1.509 7.079-4.678 18.976-12.524 34.037-11.317 21.687-25.35 48.796-16.599 66.417 6.036 12.049 16.448 25.754 26.407 39.007 13.58 17.922 25.199 33.284 22.785 40.814-2.264 7.23-6.489 11.295-9.808 14.609-4.075 3.916-6.79 6.626-4.678 13.102l64.884-23.645c-2.867-7.229-19.616-47.44-47.531-99.098l-.453-.904.754-.602C99.27 78.767 91.574 48.796 84.181 19.88c-1.358-5.572-2.867-10.994-3.773-16.265l-46.022 27.26z" transform="translate(-760 -180) translate(760 180) translate(127 103.127) translate(107.756)"/>
                        </g>
                        <path fill="#141414" d="M204.612 193.528c-8.45-22.59-25.049-53.013-38.478-78.014 51.153-44.127 28.67-80.272 22.935-113.707l-48.135 28.615c5.584 15.814-43.759 71.237-28.67 101.508 10.11 20.332 27.312 63.707 37.875 81.026 14.033-4.668 40.138-14.76 54.473-19.428zM35.158 210.547c-2.112-1.657-4.225-3.314-6.186-5.121-.755-.753-1.811.452-1.057 1.054 2.113 1.958 4.225 3.765 6.489 5.422.754.753 1.509-.753.754-1.355zM169.604 213.408c-2.263 0-4.527-.301-6.64-.602-1.055-.15-1.357 1.355-.452 1.506 2.415.301 4.678.602 7.092.602 1.056.15 1.056-1.355 0-1.506z" transform="translate(-760 -180) translate(760 180) translate(127 103.127)"/>
                    </g>
                </g>
                <g fill-rule="nonzero">
                    <g>
                        <g>
                            <path fill="#FFF" d="M191.563 80.375L8.203 70.727C1.26 70.425-1.306 61.38 4.43 57.46L83.207 2.586c1.358-.905 2.867-1.357 4.527-1.357l183.36 9.648c6.942.302 9.508 9.347 3.773 13.267L196.09 79.018c-1.358 1.056-2.867 1.508-4.527 1.357z" transform="translate(-760 -180) translate(760 180) translate(81 14) translate(0 140.097)"/>
                            <path fill="#141414" d="M191.865 81.581h-.453L8.052 71.933c-3.622-.15-6.64-2.563-7.697-6.181-1.056-3.467.302-7.236 3.32-9.347L82.452 1.53C83.962.475 85.923-.128 87.734.023l183.36 9.648c3.622.151 6.64 2.563 7.697 6.181 1.056 3.468-.302 7.236-3.32 9.347l-78.777 54.875c-1.358 1.055-3.018 1.507-4.83 1.507zM87.432 2.586c-1.207 0-2.414.452-3.47 1.055L5.183 58.516c-2.565 1.809-3.018 4.673-2.414 6.633.603 1.96 2.263 4.221 5.583 4.372l183.36 9.648c1.359.15 2.717-.301 3.773-1.055l78.777-54.875c2.566-1.809 3.019-4.673 2.415-6.633-.604-1.96-2.264-4.221-5.584-4.372L87.734 2.586h-.302z" transform="translate(-760 -180) translate(760 180) translate(81 14) translate(0 140.097)"/>
                        </g>
                        <g fill="#0179FE">
                            <path d="M70.779 9.498L45.727 8.292 57.498 0 82.55 1.206zM25.052 17.337L0 16.131 11.922 7.839 36.974 9.196zM94.019 20.503L76.664 19.749 88.435 11.457 105.941 12.211z" transform="translate(-760 -180) translate(760 180) translate(81 14) translate(0 140.097) translate(31.594 33.792)"/>
                        </g>
                    </g>
                    <g fill="#141414">
                        <path d="M80.713 9.316c-1.509-1.507-3.169-2.11-4.829-1.96-.453-.753-.905-1.507-1.509-2.11-2.113-2.864-5.433-3.317-8.15-2.261-1.509-.754-3.169-1.056-4.98-1.056h-.452C59.434.422 57.322-.483 54.756.271 50.23 1.628 46.154 3.889 43.59 7.809c-2.415 3.618-2.717 13.417-6.792 15.075-3.018 1.206-12.224-4.372-15.695-4.523-4.678-.15-8.904 1.508-12.525 4.523-7.093 5.88-10.715 15.377-7.244 24.12 3.622 9.046 13.13 15.076 21.882 18.544 17.355 6.934 45.123 10.703 60.97-1.508 18.109-13.719 9.96-40.553-3.472-54.724z" transform="translate(-760 -180) translate(760 180) translate(81 14) translate(95.758 5.978)"/>
                    </g>
                    <g fill="#0179FE" transform="translate(-760 -180) translate(760 180) translate(81 14) translate(153.382 156.853)">
                        <ellipse cx="18.411" cy="18.392" rx="17.355" ry="17.337"/>
                        <path d="M18.411 36.784C8.15 36.784 0 28.493 0 18.392 0 8.292 8.3 0 18.411 0c10.112 0 18.412 8.292 18.412 18.392s-8.3 18.392-18.412 18.392zm0-34.523c-8.903 0-16.147 7.237-16.147 16.131 0 8.895 7.244 16.13 16.147 16.13 8.904 0 16.148-7.235 16.148-16.13-.15-8.894-7.395-16.13-16.148-16.13z"/>
                    </g>
                    <g fill="#FFCC3E">
                        <path d="M9.805 98.339c24.901.15 51.915 2.261 76.665 3.467-.755-13.718-4.528-66.784-17.355-78.995C54.475 8.94 47.383 1.253 31.99.047 18.257-1.008-6.644 15.725 1.656 52.66c7.244 32.413 9.81 33.016 8.15 45.679z" transform="translate(-760 -180) translate(760 180) translate(81 14) translate(145.085 36.052)"/>
                    </g>
                    <g>
                        <g>
                            <path fill="#FFF" d="M37.05 1.508c-3.472 2.864-7.094 5.728-10.565 8.593C13.808 6.33 4 17.035 1.735 24.12-.075 30 2.34 31.96 4.301 31.96.075 37.538.377 40.1 2.339 42.06c2.113 2.111 11.319-5.427 11.319-5.427-1.359 6.03 6.489 6.181 6.489 6.181 7.244 4.221 18.411-5.276 35.163-17.336-5.584-8.292-11.772-16.282-18.26-23.97z" transform="translate(-760 -180) translate(760 180) translate(81 14) translate(163.374 34.48) translate(1.703 113.178)"/>
                            <path fill="#030047" d="M24.222 45.076c-1.51 0-2.868-.302-4.226-1.056-1.056-.15-4.678-.452-6.49-2.864-.452-.603-.754-1.206-.905-1.96-3.773 2.865-8.904 5.88-10.866 3.77-2.565-2.564-2.263-5.579.755-10.101-.604-.302-1.056-.754-1.358-1.207-.906-1.206-1.66-3.467-.302-7.688C3.094 16.885 12.752 5.427 26.334 9.045c2.717-2.261 5.584-4.522 8.3-6.784L37.352 0l.755.905c7.093 8.291 13.13 16.13 18.562 24.12l.604.905-.906.603c-2.113 1.507-4.075 2.864-5.885 4.22-11.62 8.142-19.77 14.323-26.26 14.323zm-8.603-11.608l-.754 3.316c-.302 1.206-.151 2.11.453 2.714 1.207 1.507 4.074 1.96 4.98 1.96h.302l.301.15c5.584 3.317 14.94-3.467 27.92-12.965 1.66-1.206 3.169-2.412 4.98-3.618-4.98-7.236-10.564-14.472-16.903-22.01l-.905.754c-2.868 2.412-5.886 4.824-8.753 7.236l-.453.452-.604-.15C13.96 7.688 4.905 18.392 2.943 24.573c-1.057 3.467-.453 4.975 0 5.578.452.603 1.207.754 1.509.754h2.414l-1.509 1.96c-4.527 6.03-3.018 7.537-2.112 8.442.905.452 5.583-2.11 9.809-5.427l2.565-2.412z" transform="translate(-760 -180) translate(760 180) translate(81 14) translate(163.374 34.48) translate(1.703 113.178)"/>
                        </g>
                        <path fill="#141414" d="M1.175 159.46c-.151 0-.302 0-.453-.152-.604-.301-.905-1.055-.604-1.658l1.811-3.92c.302-.602 1.057-.904 1.66-.602.604.301.906 1.055.604 1.658l-1.81 3.92c-.303.452-.755.753-1.208.753zM7.211 145.138c.151-.604-.754-.302-.452-.905l13.884-28.945c.302-.603 1.056-.904 1.66-.603.603.302.905 1.055.603 1.658L10.08 143.027c-.453.301-3.019 2.864-2.868 2.11z" transform="translate(-760 -180) translate(760 180) translate(81 14) translate(163.374 34.48)"/>
                        <g fill="#FFCC3E">
                            <path d="M64.44 46.393C51.763 11.57 20.524-1.697 2.264 1.77c0 0 27.164 25.176 33.503 34.824 6.338 9.8 12.374 56.382 8.602 62.563-2.113 3.468-14.79 4.824-22.336 17.79 6.942 7.236 14.488 19.597 20.072 28.19 7.093-1.96 15.091-3.92 31.692-22.613 19.77-22.01 3.32-41.306-9.357-76.13z" transform="translate(-760 -180) translate(760 180) translate(81 14) translate(163.374 34.48) translate(11.437)"/>
                            <path d="M41.652 146.494l-.453-.753c-.905-1.357-1.66-2.714-2.565-4.07-5.131-7.99-11.47-17.79-17.204-23.82l-.604-.603.453-.754c5.13-8.894 12.677-12.663 17.657-15.075 2.263-1.056 4.074-1.96 4.678-2.865 3.32-5.427-2.113-51.558-8.602-61.206C28.825 27.85 1.962 2.976 1.66 2.674L0 1.016 2.264.564C19.92-2.904 52.367 9.308 65.647 45.94c2.717 7.538 5.735 14.472 8.452 20.653 9.658 22.614 16.751 38.895.754 56.684-16.751 18.694-24.9 20.955-32.144 22.915l-1.057.301zm-18.11-29.698c5.886 6.18 11.923 15.829 16.903 23.517.754 1.206 1.509 2.262 2.113 3.317 6.79-1.81 14.487-4.372 30.333-22.01 14.94-16.734 8.602-31.659-1.207-54.272-2.716-6.18-5.735-13.116-8.451-20.804C50.858 12.774 22.184.564 4.829 2.373c6.188 5.88 26.41 25.025 31.843 33.467 6.49 9.8 12.828 56.986 8.602 63.77-.905 1.507-2.867 2.412-5.584 3.768-4.829 2.563-11.318 5.73-16.147 13.418z" transform="translate(-760 -180) translate(760 180) translate(81 14) translate(163.374 34.48) translate(11.437)"/>
                        </g>
                        <path fill="#141414" d="M22.152 142.575c-2.264 1.507-4.377 3.316-6.339 5.125-.754.754.302 1.81 1.057 1.056 1.81-1.81 3.924-3.317 6.036-4.825.755-.603 0-1.96-.754-1.356zM29.245 148.605c-2.113 2.261-4.528 4.221-7.244 5.729-.906.452-.151 1.809.754 1.356 2.868-1.507 5.433-3.618 7.546-5.88.755-.904-.302-1.959-1.056-1.205z" transform="translate(-760 -180) translate(760 180) translate(81 14) translate(163.374 34.48)"/>
                        <path fill="#FFF" d="M53.995 102.625c-.302 0-.453-.151-.755-.302-.453-.452-.604-1.206-.15-1.658 5.583-6.935-.454-20.05-6.943-33.77C41.47 56.947 36.64 46.545 35.885 37.5c0-.603.453-1.206 1.056-1.357.604 0 1.208.452 1.359 1.055.754 8.593 5.583 18.694 10.11 28.493 6.792 14.472 13.13 28.19 6.641 36.332-.302.301-.755.603-1.056.603z" transform="translate(-760 -180) translate(760 180) translate(81 14) translate(163.374 34.48)"/>
                    </g>
                    <g>
                        <g>
                            <path fill="#FFF" d="M17.739 48.845c-2.868 0-3.924-2.262-4.075-2.262l-.453-.904-.905.301c-.755.15-1.358.302-1.962.302-3.17 0-3.622-3.015-3.622-3.166l-.15-1.357-1.359.302s-.302.15-.755.15c-1.66 0-2.716-.904-3.018-2.864C.686 34.824 5.213 20.352 17.437 7.99c2.264-2.412 4.83-4.372 7.093-6.332 5.433 3.77 10.715 8.141 15.695 12.513l2.415 1.96c1.66 1.507 3.169 2.713 4.376 3.92-1.509 1.205-2.867 2.26-4.225 3.316l-.453.452v.754c.603 6.935-2.113 15.377-4.98 18.392-.755.905-1.359.905-1.51.905-.452 0-.754-.151-1.056-.453-1.207-1.658-.604-6.482.151-9.196l.15-.904-2.263-1.508-.453.452c-.603.453-1.056.754-1.66 1.056-1.81 1.206-3.772 2.563-5.432 4.824-1.208 1.658-2.113 3.618-2.868 5.427-1.056 2.11-2.264 4.824-3.169 4.975-.604.15-1.056.302-1.51.302z" transform="translate(-760 -180) translate(760 180) translate(81 14) translate(86.898 34.893) translate(0 93.77)"/>
                            <path fill="#141414" d="M24.68 3.015c5.132 3.618 10.112 7.84 14.79 11.91.755.603 1.51 1.357 2.415 1.96 1.207 1.055 2.415 1.96 3.32 2.864-.905.754-1.81 1.357-2.565 2.11l-.604.453-1.056.753.15 1.206c.755 8.443-3.32 17.187-5.281 18.091-.604-.754-.604-4.523.452-8.14l.453-1.659-1.51-.905-.905-.603-1.358-.904-1.358.904c-.453.302-1.056.754-1.66 1.056-1.962 1.206-4.075 2.713-5.735 5.125-1.207 1.659-2.113 3.77-3.018 5.73-.755 1.507-1.811 3.919-2.415 4.371-.302 0-.754.15-1.056.15-2.113 0-2.868-1.507-2.868-1.658l-.905-1.809-1.962.603c-.604.151-1.207.302-1.66.302-1.962 0-2.415-1.508-2.565-2.11l-.453-2.564-2.566.604h-.452c-.906 0-1.66-.302-1.962-1.81C1.742 35.427 5.364 21.71 18.04 8.744c2.263-2.262 4.527-4.07 6.64-5.729M24.53 0c-2.716 2.11-5.433 4.372-7.998 6.935C3.704 19.9-.673 34.523.082 39.347c.604 3.317 2.867 3.769 4.226 3.769.603 0 1.056-.15 1.056-.15s.604 4.22 4.83 4.22c.603 0 1.357-.15 2.263-.301 0 0 1.358 3.015 5.13 3.015.454 0 1.057 0 1.661-.151 2.566-.603 4.075-7.085 6.791-11.005 1.962-2.714 4.678-4.07 6.791-5.578l.906.603s-3.019 11.156 1.962 11.156c3.47 0 8.45-11.156 7.545-20.654 1.66-1.356 3.471-2.864 5.433-4.371-1.81-1.659-3.622-3.317-5.433-4.825C37.358 9.95 31.17 4.523 24.53 0z" transform="translate(-760 -180) translate(760 180) translate(81 14) translate(86.898 34.893) translate(0 93.77)"/>
                        </g>
                        <g fill="#FFCC3E">
                            <path d="M29.73 52.915c-.905 26.08-24.146 34.824-28.22 43.417 5.583 3.618 10.865 7.99 15.996 11.91 3.17 2.412 6.49 7.99 9.206 10.553 24.297-6.03 23.844-22.764 26.108-31.357C56.14 74.624 70.477 1.055 70.477 1.055 36.37 4.372 30.787 23.518 29.73 52.915z" transform="translate(-760 -180) translate(760 180) translate(81 14) translate(86.898 34.893) translate(19.7)"/>
                            <path d="M26.41 120.302l-.453-.452c-1.056-1.206-2.264-2.714-3.622-4.372-1.81-2.412-3.622-4.824-5.433-6.18-1.509-1.207-3.169-2.413-4.678-3.619-3.622-2.864-7.395-5.88-11.319-8.291L0 96.784l.453-.904c1.358-2.864 4.678-5.729 8.45-9.045 8-6.935 19.016-16.583 19.77-33.92 1.208-31.81 8.15-49.75 41.804-52.764L71.986 0l-.302 1.508c-.15.753-14.337 73.87-17.808 86.533-.302 1.206-.603 2.563-.905 3.92-1.811 9.045-4.377 22.763-26.108 28.19l-.453.151zM3.17 96.031c3.621 2.412 7.092 5.125 10.563 7.839 1.51 1.206 3.17 2.412 4.678 3.618 1.962 1.508 3.924 4.07 5.886 6.633 1.057 1.357 1.962 2.714 2.867 3.618 19.62-5.125 21.883-17.186 23.694-26.08.302-1.508.604-2.865.905-4.07C54.782 75.98 67.006 13.567 69.12 2.863c-30.787 3.317-36.974 19.75-38.03 50.352-.604 18.392-12.074 28.342-20.525 35.73-3.32 2.411-6.037 4.823-7.395 7.085z" transform="translate(-760 -180) translate(760 180) translate(81 14) translate(86.898 34.893) translate(19.7)"/>
                        </g>
                        <path fill="#141414" d="M19.852 121.357c-3.622 4.975-5.282 10.855-6.791 16.885-.302.905 1.207 1.357 1.358.452 1.509-5.728 3.018-11.457 6.64-16.432.604-.905-.604-1.658-1.207-.905zM11.099 118.04c-2.717 5.73-5.282 10.704-5.433 17.187 0 .904 1.509.904 1.509 0 .15-6.181 2.716-10.854 5.131-16.432.453-.754-.755-1.508-1.207-.754z" transform="translate(-760 -180) translate(760 180) translate(81 14) translate(86.898 34.893)"/>
                        <path fill="#FFF" d="M71.917 92.413c-.151 0-.302 0-.453-.151-.603-.302-.905-.905-.754-1.508 0-.15 5.282-14.02-3.924-30-9.206-16.13-9.96-26.683-3.018-40.251.301-.603 1.056-.754 1.66-.453.603.302.754 1.056.452 1.659-5.583 10.854-6.942 20.653 3.019 37.99 9.658 17.035 4.225 31.508 4.074 32.11-.15.302-.603.604-1.056.604z" transform="translate(-760 -180) translate(760 180) translate(81 14) translate(86.898 34.893)"/>
                    </g>
                    <g>
                        <path fill="#141414" d="M133.49 134.44c-.603 0-1.206-.602-1.206-1.205 0-.603-.302-58.192-.151-100.252 0-7.689-3.019-14.925-8.452-20.352-5.432-5.427-12.676-8.442-20.373-8.442h-.15l-48.746.301c-5.886 0-11.62 1.81-16.299 5.277L34.19 12.48c-.906.603-1.811.905-2.868.754L4.31 11.576C2.347 11.425.838 10.219.234 8.41c-.604-1.81 0-3.77 1.358-4.975l2.415-1.96c.302-.15.453-.452.603-.754.302-.603 1.057-.904 1.66-.603.604.302.906 1.056.604 1.659-.302.603-.754 1.055-1.207 1.507l-2.415 1.96c-.754.603-.905 1.507-.603 2.412.301.905 1.056 1.508 1.961 1.508l27.014 1.658c.453 0 1.056-.15 1.358-.452l3.924-2.714c5.282-3.618 11.319-5.578 17.657-5.729l48.745-.301h.151c8.3 0 16.148 3.166 22.033 9.045 5.886 5.88 9.206 13.719 9.206 22.161-.15 42.211.151 99.8.151 100.252-.15.754-.754 1.357-1.358 1.357z" transform="translate(-760 -180) translate(760 180) translate(81 14) translate(158.882 191.56)"/>
                        <path fill="#141414" d="M146.922 134.44h-28.22c-.604 0-1.208-.602-1.208-1.205 0-.603.604-1.206 1.207-1.206h28.221c.604 0 1.207.603 1.207 1.206s-.452 1.206-1.207 1.206z" transform="translate(-760 -180) translate(760 180) translate(81 14) translate(158.882 191.56)"/>
                        <path fill="#141414" d="M133.49 116.5h-.905c-4.376 0-7.998 3.619-7.998 7.99v8.895h16.902v-8.894c0-4.523-3.47-7.99-7.998-7.99z" transform="translate(-760 -180) translate(760 180) translate(81 14) translate(158.882 191.56)"/>
                        <path fill="#FFCC3E" d="M141.49 112.43c-.152 0-.453 0-.604-.15-.604-.302-.755-1.056-.453-1.659l9.206-15.829c.301-.603 1.056-.754 1.66-.452.603.301.754 1.055.452 1.658l-9.205 15.83c-.151.452-.604.602-1.057.602zM147.073 121.476c-.302 0-.754-.151-.905-.452-.453-.453-.302-1.207.15-1.659l10.866-8.894c.453-.453 1.208-.302 1.66.15.453.453.302 1.206-.15 1.659l-10.866 8.894c-.151.151-.453.302-.755.302zM124.738 111.375c-.453 0-.906-.301-1.057-.603l-5.583-10.402c-.302-.603-.151-1.357.452-1.658.604-.302 1.359-.15 1.66.452l5.584 10.402c.302.603.151 1.357-.452 1.658-.302.151-.453.151-.604.151z" transform="translate(-760 -180) translate(760 180) translate(81 14) translate(158.882 191.56)"/>
                    </g>
                    <g fill="#141414">
                        <path d="M5.404 11.429c-.301 0-.754-.15-.905-.452L.273 5.85c-.452-.452-.301-1.206.151-1.658.453-.453 1.208-.302 1.66.15L6.31 9.47c.453.452.302 1.206-.151 1.658-.302.302-.604.302-.755.302zM7.517 7.51c-.302 0-.754-.151-.905-.453L2.386 1.931C1.933 1.48 2.084.725 2.537.273c.453-.452 1.207-.301 1.66.15L8.423 5.55c.452.453.302 1.207-.151 1.659-.302.15-.604.301-.755.301zM60.186 24.997c-.15 0-.453 0-.604-.15-.603-.302-.754-1.056-.452-1.66l5.433-8.894c.301-.603 1.056-.754 1.66-.452.603.302.754 1.055.452 1.658l-5.432 8.895c-.302.452-.755.603-1.057.603z" transform="translate(-760 -180) translate(760 180) translate(81 14) translate(71.917 155.826)"/>
                    </g>
                    <g transform="translate(-760 -180) translate(760 180) translate(81 14) translate(138.14)">
                        <g>
                            <path fill="#FFF" d="M50.26 19.968c.15-4.975-4.377-8.442-9.81-7.085-.604-1.056-1.358-2.111-2.264-3.166l-.15-.151C29.735-.082 16.001-1.891 7.4 5.496c-4.075 3.467-6.037 8.743-6.187 14.17-.151 5.88 2.565 11.609 5.583 16.734 6.64 11.458 19.317 15.528 30.636 4.07 2.565-2.562 4.376-5.879 5.433-9.346 4.829-1.81 7.244-6.784 7.394-11.156z" transform="translate(.297)"/>
                            <path fill="#141414" d="M23.246 48.762c-.755 0-1.358 0-2.113-.15-6.036-.754-11.62-4.825-15.393-11.307C3.023 32.63-.146 26.45.005 19.968c.151-6.18 2.566-11.608 6.64-15.075C10.72 1.425 16.153-.384 21.888.068c6.489.453 12.827 3.77 17.204 8.895.754.905 1.358 1.658 1.962 2.714 2.716-.453 5.282.15 7.244 1.658 1.961 1.658 3.169 4.07 3.169 6.784-.151 4.372-2.415 9.648-7.546 12.21-1.056 3.62-3.018 6.785-5.584 9.348-4.678 4.522-9.81 7.085-15.091 7.085zM20.076 2.33c-4.527 0-8.601 1.507-11.921 4.22C4.533 9.567 2.42 14.39 2.42 19.818c-.151 5.88 2.565 11.458 5.282 16.131 3.32 5.729 8.3 9.498 13.582 10.1 5.131.604 10.413-1.507 15.242-6.331 2.415-2.412 4.226-5.427 5.131-8.895l.151-.603.453-.15c4.527-1.96 6.49-6.634 6.64-10.252 0-1.96-.754-3.618-2.263-4.824-1.66-1.206-3.773-1.658-6.037-1.055l-.905.15-.453-.753c-.755-1.055-1.358-2.11-2.113-3.015-4.075-4.824-9.81-7.84-15.695-8.292-.302.302-.755.302-1.358.302z" transform="translate(.297)"/>
                        </g>
                        <ellipse cx="19.616" cy="25.998" fill="#141414" rx="1.659" ry="1.66" transform="rotate(-63.309 19.616 25.998)"/>
                        <path fill="#141414" d="M15.242 38.662c-1.962-3.015-3.47-6.181-4.376-9.649-.302-.904 1.207-1.507 1.509-.452.905 3.317 2.415 6.332 4.226 9.196.452.905-.755 1.81-1.359.905zM37.276 24.943c0-3.769 2.565-7.085 6.187-7.99 1.057-.302 1.51 1.206.453 1.508-3.018.753-5.131 3.165-5.131 6.331 0 1.055-1.51 1.206-1.51.151zM36.823 17.405c-.906 4.975-16.148 4.07-29.73 1.659C4.527 22.38 2.566 26.752 0 25.998.15 20.571 3.773 9.264 7.848 5.646c8.602-7.387 26.41-7.99 33.955 7.538 0 .15-3.924 2.864-4.98 4.221z"/>
                    </g>
                </g>
                <g fill-rule="nonzero">
                    <g>
                        <path fill="#FFF" d="M28.487 2.12L2.713 21.803 34.516 31.493z" transform="translate(-760 -180) translate(760 180) translate(82 128.023) translate(23.4 34.667)"/>
                        <path fill="#141414" d="M36.023 33.31L0 22.257 29.24 0l6.783 33.31zM5.275 21.35l27.733 8.479-5.275-25.589L5.275 21.35z" transform="translate(-760 -180) translate(760 180) translate(82 128.023) translate(23.4 34.667)"/>
                    </g>
                    <g>
                        <path fill="#FFF" d="M3.986 4.132L19.672 4.106 19.647 19.843 3.96 19.868z" transform="translate(-760 -180) translate(760 180) translate(82 128.023) translate(46.159 .449) rotate(-22.549 11.816 11.987)"/>
                        <path fill="#141414" d="M6.933 23.771L0 6.965 16.73 0l6.934 16.806-16.73 6.965zM3.014 8.328L8.14 20.743l12.36-5.148L15.373 3.18 3.014 8.328z" transform="translate(-760 -180) translate(760 180) translate(82 128.023) translate(46.159 .449)"/>
                    </g>
                    <path fill="#141414" d="M36.06 37.241c-3.918 0-8.892-1.21-13.112-6.056-.905-1.06-1.81-2.271-2.713-3.331-4.22-5.45-7.989-10.144-18.69-7.42-.603.152-1.357-.15-1.507-.908-.151-.605.15-1.362.904-1.514 12.209-3.18 16.73 2.726 21.101 8.328.905 1.06 1.809 2.271 2.713 3.33 7.386 8.328 16.881 4.392 17.333 4.089.603-.303 1.357 0 1.508.606.301.605 0 1.362-.603 1.514-.151 0-3.015 1.362-6.934 1.362zM39.075 27.248c-3.919 0-8.893-1.21-13.113-6.056-.904-1.06-1.809-2.271-2.713-3.331-4.22-5.45-7.988-10.296-18.69-7.42-.603.152-1.356-.15-1.507-.908-.15-.605.15-1.362.904-1.514 12.209-3.18 16.73 2.726 21.102 8.328.904 1.06 1.808 2.271 2.713 3.33 7.385 8.328 16.88 4.392 17.333 4.089.603-.303 1.356 0 1.507.606.302.605 0 1.362-.603 1.514-.15.151-3.014 1.362-6.933 1.362z" transform="translate(-760 -180) translate(760 180) translate(82 128.023)"/>
                    <path fill="#141414" d="M272.481 4.39L293.63 4.438 293.678 25.587 272.529 25.539z" transform="translate(-760 -180) translate(760 180) translate(82 128.023) rotate(45 283.08 14.989)"/>
                </g>
            </g>
        </g>
    </g>
</svg>
