<svg width="263" height="220" viewBox="0 0 263 220" fill="none" xmlns="http://www.w3.org/2000/svg">
<path fill-rule="evenodd" clip-rule="evenodd" d="M87.2556 152.919H6.52135C4.82919 152.919 3.4447 151.534 3.4447 149.842V76.2269C3.4447 74.5347 4.82919 73.1501 6.52135 73.1501H87.2556C88.9479 73.1501 90.3324 74.5347 90.3324 76.2269V149.842C90.3324 151.534 88.9479 152.919 87.2556 152.919Z" fill="#C3E4FF"/>
<path fill-rule="evenodd" clip-rule="evenodd" d="M90.3324 76.2258V83.1113H3.44472V76.2258C3.44472 74.5348 4.82874 73.1492 6.52136 73.1492H87.2557C88.9484 73.1492 90.3324 74.5348 90.3324 76.2258Z" fill="#E8F6FF"/>
<path fill-rule="evenodd" clip-rule="evenodd" d="M258.197 139.557H193.126C191.433 139.557 190.049 138.173 190.049 136.48V91.1629C190.049 89.4706 191.433 88.0859 193.126 88.0859H258.197C259.889 88.0859 261.274 89.4706 261.274 91.1629V136.48C261.274 138.173 259.889 139.557 258.197 139.557Z" fill="#C3E4FF"/>
<path fill-rule="evenodd" clip-rule="evenodd" d="M261.274 91.1611V98.0466H190.049V91.1611C190.049 89.4701 191.183 88.0845 192.571 88.0845H258.752C260.139 88.0845 261.274 89.4701 261.274 91.1611Z" fill="#E8F6FF"/>
<path fill-rule="evenodd" clip-rule="evenodd" d="M261.274 58.4983H190.049V56.8101H261.274V58.4983Z" fill="#D6EEFF"/>
<path fill-rule="evenodd" clip-rule="evenodd" d="M261.274 68.262H190.049V66.5738H261.274V68.262Z" fill="#D6EEFF"/>
<path fill-rule="evenodd" clip-rule="evenodd" d="M261.274 73.144H190.049V71.4556H261.274V73.144Z" fill="#D6EEFF"/>
<path fill-rule="evenodd" clip-rule="evenodd" d="M240.462 78.0258H190.049V76.3374H240.462V78.0258Z" fill="#D6EEFF"/>
<path fill-rule="evenodd" clip-rule="evenodd" d="M261.274 63.3801H190.049V61.6918H261.274V63.3801Z" fill="#D6EEFF"/>
<path fill-rule="evenodd" clip-rule="evenodd" d="M261.274 53.1329H214.152V49.5236H261.274V53.1329Z" fill="#C3E4FF"/>
<path fill-rule="evenodd" clip-rule="evenodd" d="M214.152 43.0283H261.274V40.8298H214.152V43.0283Z" fill="#D6EEFF"/>
<path fill-rule="evenodd" clip-rule="evenodd" d="M214.152 37.9675H261.274V35.769H214.152V37.9675Z" fill="#D6EEFF"/>
<path fill-rule="evenodd" clip-rule="evenodd" d="M214.152 31.1662H240.462V26.1058H214.152V31.1662Z" fill="#C3E4FF"/>
<path fill-rule="evenodd" clip-rule="evenodd" d="M209.716 35.429C209.716 39.9116 207.894 43.969 204.951 46.9002C202.023 49.8176 197.983 51.6209 193.525 51.6209C189.066 51.6209 185.027 49.8194 182.1 46.9002C179.155 43.9707 177.333 39.9133 177.333 35.429C177.333 26.4863 184.582 19.2371 193.525 19.2371C202.467 19.2371 209.716 26.4863 209.716 35.429Z" fill="#B8DFFF"/>
<path d="M196.626 36.375C195.606 36.375 195.149 36.9375 193.497 36.9375C191.809 36.9375 191.352 36.375 190.333 36.375C187.731 36.375 185.622 38.5195 185.622 41.1211V42.5625C185.622 43.5117 186.36 44.25 187.309 44.25H199.684C200.598 44.25 201.372 43.5117 201.372 42.5625V41.1211C201.372 38.5195 199.227 36.375 196.626 36.375ZM200.247 42.5625C200.247 42.8789 199.965 43.125 199.684 43.125H187.309C186.993 43.125 186.747 42.8789 186.747 42.5625V41.1211C186.747 39.1172 188.329 37.5 190.333 37.5C191.036 37.5 191.704 38.0625 193.497 38.0625C195.254 38.0625 195.958 37.5 196.626 37.5C198.629 37.5 200.247 39.1172 200.247 41.1211V42.5625ZM193.497 35.25C195.958 35.25 197.997 33.2461 197.997 30.75C197.997 28.2891 195.958 26.25 193.497 26.25C191.001 26.25 188.997 28.2891 188.997 30.75C188.997 33.2461 191.001 35.25 193.497 35.25ZM193.497 27.375C195.325 27.375 196.872 28.9219 196.872 30.75C196.872 32.6133 195.325 34.125 193.497 34.125C191.633 34.125 190.122 32.6133 190.122 30.75C190.122 28.9219 191.633 27.375 193.497 27.375Z" fill="white"/>
<path d="M259.422 161.652H3.54749" stroke="#D6EEFF" stroke-width="3" stroke-linecap="round"/>
<mask id="mask0" mask-type="alpha" maskUnits="userSpaceOnUse" x="19" y="0" width="98" height="114">
<path fill-rule="evenodd" clip-rule="evenodd" d="M19.5475 0H116.547V114H19.5475V0Z" fill="white"/>
</mask>
<g mask="url(#mask0)">
<path fill-rule="evenodd" clip-rule="evenodd" d="M113.587 114H22.5084C20.8799 114 19.5475 112.807 19.5475 111.349V2.65088C19.5475 1.1929 20.8799 0 22.5084 0H113.587C115.215 0 116.547 1.1929 116.547 2.65088V111.349C116.547 112.807 115.215 114 113.587 114Z" fill="#6CA1FF"/>
<rect x="19.5475" y="31" width="97" height="24" fill="white"/>
</g>
<path fill-rule="evenodd" clip-rule="evenodd" d="M45.4037 42.1399H106.189V39.7881H45.4037V42.1399Z" fill="#FFC000"/>
<path fill-rule="evenodd" clip-rule="evenodd" d="M45.4037 47.0574H88.2259V44.7056H45.4037V47.0574Z" fill="#FFC000"/>
<path d="M32.812 35.0097C27.9604 35.0097 24.0933 38.912 24.0933 43.7285C24.0933 48.58 27.9604 52.4472 32.812 52.4472C34.6401 52.4472 36.4683 51.8495 37.98 50.7597C38.1558 50.6191 38.1909 50.3378 38.0503 50.162L37.8745 49.9511C37.7339 49.7753 37.4526 49.7402 37.2769 49.8808C35.9761 50.83 34.394 51.3222 32.812 51.3222C28.5933 51.3222 25.2183 47.9472 25.2183 43.7285C25.2183 39.5449 28.5933 36.1347 32.812 36.1347C36.9604 36.1347 40.4058 38.9824 40.4058 43.166C40.4058 45.7324 38.5425 46.998 36.2925 46.998C35.6245 46.998 35.4839 46.6113 35.6245 45.8027L36.7495 40.037C36.7847 39.7558 36.6089 39.5097 36.3276 39.5097H35.9058C35.6948 39.5097 35.519 39.6855 35.4839 39.8613C35.4136 40.2831 35.3784 40.3535 35.3433 40.7753C34.9214 39.8261 34.0073 39.2636 32.7769 39.2636C30.3862 39.2636 28.1011 41.4785 28.1011 44.7831C28.1011 46.9277 29.2964 48.2285 31.2651 48.2285C32.6714 48.2285 33.7612 47.3847 34.3237 46.5761C34.2886 47.5605 34.9214 48.0527 35.9409 48.0527C39.7378 48.0527 41.5308 46.0488 41.5308 43.166C41.5308 38.3847 37.6284 35.0097 32.812 35.0097ZM31.4761 47.0683C30.1753 47.0683 29.4019 46.1894 29.4019 44.7128C29.4019 42.0761 31.1948 40.4238 32.812 40.4238C34.1831 40.4238 34.8511 41.4081 34.8511 42.7441C34.8511 44.7831 33.5151 47.0683 31.4761 47.0683Z" fill="#FFC000"/>
<path fill-rule="evenodd" clip-rule="evenodd" d="M24.5475 63H106.547V61H24.5475V63Z" fill="white"/>
<path fill-rule="evenodd" clip-rule="evenodd" d="M24.5475 68H106.547V66H24.5475V68Z" fill="white"/>
<path fill-rule="evenodd" clip-rule="evenodd" d="M24.5475 73H82.5475V71H24.5475V73Z" fill="white"/>
<path fill-rule="evenodd" clip-rule="evenodd" d="M24.5475 83H106.547V81H24.5475V83Z" fill="white"/>
<path fill-rule="evenodd" clip-rule="evenodd" d="M24.5475 88H82.5475V86H24.5475V88Z" fill="white"/>
<path fill-rule="evenodd" clip-rule="evenodd" d="M24.5475 18H106.547V16H24.5475V18Z" fill="white"/>
<path fill-rule="evenodd" clip-rule="evenodd" d="M24.5475 12H106.547V10H24.5475V12Z" fill="white"/>
<path fill-rule="evenodd" clip-rule="evenodd" d="M24.5475 24H82.5475V22H24.5475V24Z" fill="white"/>
<path fill-rule="evenodd" clip-rule="evenodd" d="M45.4038 102.98H86.9082V99.7465H45.4038V102.98Z" fill="white"/>
<path d="M104.631 56.6448L106.441 68.3533" stroke="#1D294F" stroke-width="2" stroke-linecap="round"/>
<path d="M104.261 54.0167L104.759 57.4791" stroke="#1D294F" stroke-width="2" stroke-linecap="round"/>
<path fill-rule="evenodd" clip-rule="evenodd" d="M104.441 53.4015C101.332 54.0524 98.1652 51.488 97.3673 47.6737C96.5694 43.8594 98.443 40.2396 101.552 39.5887C104.661 38.9378 107.828 41.5022 108.626 45.3165C109.424 49.1308 107.55 52.7505 104.441 53.4015Z" stroke="#1D294F" stroke-width="2" stroke-linecap="round"/>
<path fill-rule="evenodd" clip-rule="evenodd" d="M110.768 201.733L108.53 208.425L87.5475 201.178L108.962 219.242H116.054L121.092 200.476L110.768 201.733Z" fill="#185463"/>
<path fill-rule="evenodd" clip-rule="evenodd" d="M120.518 202.204L118.157 211.284L108.563 208.407L110.801 201.714L120.518 202.204Z" fill="#E5AC95"/>
<path fill-rule="evenodd" clip-rule="evenodd" d="M167.883 200.943L171.568 206.308L168.643 212.303L155.808 219.243L171.859 219.27L184.442 207.798L174.608 192.627L167.883 200.943Z" fill="#185463"/>
<path fill-rule="evenodd" clip-rule="evenodd" d="M163.503 69.0188C164.552 75.1013 163.708 87.5971 160.116 95.9111C157.367 104.785 152.315 108.228 152.315 108.228L144.309 103.712L153.549 92.2233L161.347 60.4995C161.347 60.4995 162.477 63.0655 163.503 69.0188Z" fill="#507047"/>
<path fill-rule="evenodd" clip-rule="evenodd" d="M175.077 192.843L179.972 200.827L171.568 206.308L167.883 200.942L175.077 192.843Z" fill="#E5AC95"/>
<path fill-rule="evenodd" clip-rule="evenodd" d="M107.129 203.879L123.355 208.551L139.244 139.911L145.488 113.531L156.172 93.6531H130.728L128.863 93.7829L107.129 203.879Z" fill="#2B2B3B"/>
<path fill-rule="evenodd" clip-rule="evenodd" d="M134.682 120.82L139.484 139.911L142.451 151.704L167.652 205.129L181.505 195.665L160.166 147.352L158.788 115.023C158.788 115.023 159.991 106.145 157.749 93.6531H155.96L134.682 120.82Z" fill="#2B2B3B"/>
<path fill-rule="evenodd" clip-rule="evenodd" d="M139.391 139.418L146.976 117.114L141.548 147.99L139.391 139.418Z" fill="#121216"/>
<path fill-rule="evenodd" clip-rule="evenodd" d="M108.52 69.7716L109.106 66.7113C109.106 66.7113 109.747 65.719 109.485 64.3431C109.222 62.967 107.247 60.9795 107.546 58.5846C107.755 56.916 106.19 57.6271 105.669 58.588C105.148 59.5486 106.88 62.0763 105.679 61.9151C104.477 61.7536 104.852 60.5091 104.209 57.3176C104.123 56.8891 101.626 56.1476 100.48 60.1916C99.916 62.1846 100.197 64.4153 101.199 65.4263C101.199 65.4263 102.856 68.0956 104.415 68.4811C106.065 68.8894 105.872 69.1292 108.52 69.7716Z" fill="#E5AC95"/>
<path fill-rule="evenodd" clip-rule="evenodd" d="M157.866 98.7229C157.866 98.7229 159.091 90.9427 160.149 82.2893C161.296 72.9175 162.658 67.9302 161.449 61.2815C159.879 52.6494 152.623 49.0035 141.024 50.9565C132.608 51.7749 131.581 55.3674 129.118 59.3704C127.197 62.4917 121.801 69.2459 119.675 73.2271L125.628 76.4091L130.657 76.717L127.921 98.551" fill="#72A065"/>
<path fill-rule="evenodd" clip-rule="evenodd" d="M141.096 50.9766C141.096 50.9766 145.529 53.9518 151.844 54.276C156.165 54.4979 154.574 51.9528 154.574 51.9528C154.574 51.9528 152.117 50.6341 147.836 50.3428C144.235 50.0979 141.096 50.9766 141.096 50.9766Z" fill="#E5AC95"/>
<path fill-rule="evenodd" clip-rule="evenodd" d="M132.811 23.174C132.811 23.174 124.879 31.3745 133.968 34.8387L132.811 23.174Z" fill="#323232"/>
<path fill-rule="evenodd" clip-rule="evenodd" d="M155.204 37.6067C156.121 35.6648 154.694 46.7314 154.694 46.7314L154 52.5L143 51.5L143.244 47.6652C143.244 47.6652 133.286 47.2976 131.349 45.9896C131.349 45.9896 130.893 36.1735 133.168 29.5125L142.115 23.1213L155.083 25.589L155.204 37.6067Z" fill="#E5AC95"/>
<path d="M144.621 42.9899C144.621 42.9899 149.98 42.6631 152.43 39.3506" stroke="black" stroke-opacity="0.15"/>
<path fill-rule="evenodd" clip-rule="evenodd" d="M154.235 43.7671C157.292 44.3397 163.496 33.7065 159.827 26.663C154.876 17.1549 147.178 19.9887 147.178 19.9887C147.178 19.9887 146.217 11.9702 141.068 11.4009C133.732 10.5894 131.295 21.7962 131.295 21.7962C131.295 21.7962 130.174 15.4201 127.971 16.06C125.768 16.6996 122.874 34.8442 140.188 29.6888C140.188 29.6888 138.907 35.2529 142.838 35.8042C144.532 36.042 145.546 33.7601 145.546 33.7601C145.546 33.7601 148.77 37.8773 151.199 39.9519C151.199 39.9519 152.822 43.5024 154.235 43.7671Z" fill="#323232"/>
<path fill-rule="evenodd" clip-rule="evenodd" d="M143.244 47.6651L147.872 47.5978L142.933 50.644L143.244 47.6651Z" fill="black" fill-opacity="0.15"/>
<path d="M131.563 42.791C131.563 42.791 133.043 43.1814 133.341 41.7193" stroke="black"/>
<path fill-rule="evenodd" clip-rule="evenodd" d="M134.531 37.5514C134.384 38.1727 133.761 38.5571 133.14 38.4101C132.52 38.2631 132.136 37.6402 132.283 37.019C132.43 36.3977 133.053 36.0132 133.673 36.1602C134.294 36.3072 134.678 36.9301 134.531 37.5514Z" fill="black"/>
<path d="M134.531 37.5514C134.384 38.1727 133.761 38.5571 133.14 38.4101C132.52 38.2631 132.136 37.6402 132.283 37.019C132.43 36.3977 133.053 36.0132 133.673 36.1602C134.294 36.3072 134.678 36.9301 134.531 37.5514" stroke="#E5AC95"/>
<path fill-rule="evenodd" clip-rule="evenodd" d="M152.493 38.8683C150.424 42.5451 143.561 42.7773 143.561 42.7773L143.989 40.8385L145.545 33.76C146.497 31.8569 152.468 30.8621 153.036 35.9169C153.169 37.0891 152.945 38.0609 152.493 38.8683Z" fill="#E5AC95"/>
<path d="M145.908 39.6468C145.908 39.6468 147.463 39.6755 147.386 38.3283C147.311 37.0247 146.071 36.8254 146.071 36.8254C146.071 36.8254 146.832 33.5842 149.762 34.453" stroke="black" stroke-opacity="0.15"/>
<path fill-rule="evenodd" clip-rule="evenodd" d="M105.305 69.7373L110.334 65.1184L119.636 73.0027L130.957 76.4598C130.957 76.4598 125.379 83.4547 119.729 82.9955C115.74 82.6713 105.305 69.7373 105.305 69.7373Z" fill="#72A065"/>
<path d="M130.555 76.7609L132.505 74.0483L135.995 68.8135" stroke="black" stroke-opacity="0.3" stroke-width="2"/>
</svg>
