<svg xmlns="http://www.w3.org/2000/svg" width="460" height="460" viewBox="0 0 460 460">
    <g fill="none" fill-rule="evenodd">
        <g>
            <g>
                <path d="M0 0H460V460H0z" transform="translate(-200 -7340) translate(200 7340)"/>
                <g fill-rule="nonzero">
                    <path fill="#141414" d="M160.854 138.145l21.483 26.541-48.402 44.722s-5.702-6.238-1.99-12.607c1.857-3.318 3.581-9.157 3.979-15.527 0-.398 0-.929.133-1.327.132-1.592.132-3.185 0-4.777 0-.398-.133-.93-.133-1.327-.398-3.583-1.326-7.034-2.917-9.953l27.847-25.745z" transform="translate(-200 -7340) translate(200 7340) translate(256.133 163.929)"/>
                    <path fill="#FFF" d="M148.522 173.445c-4.111.53-8.355 1.194-12.465 1.858 0-.399-.133-.93-.133-1.328 4.11-.53 8.222-1.194 12.333-1.725.795-.132 1.06 1.062.265 1.195zM147.328 180.876c-3.713.133-7.558.266-11.271.398 0-.398 0-.929.132-1.327 3.713-.133 7.559-.265 11.272-.398.796 0 .663 1.327-.133 1.327z" transform="translate(-200 -7340) translate(200 7340) translate(256.133 163.929)"/>
                    <path fill="#141414" d="M68.16 171.321l-2.253 34.105H0s0-8.36 7.028-10.616c3.58-1.062 8.885-4.38 13.526-8.626.266-.265.663-.53.929-.929 1.06-1.061 2.254-2.256 3.182-3.45.265-.398.53-.663.796-1.062 2.122-2.92 3.846-6.104 4.509-9.289h38.19v-.133z" transform="translate(-200 -7340) translate(200 7340) translate(256.133 163.929)"/>
                    <g>
                        <path fill="#FFF" d="M114.574 91.699c-6.763-23.887-17.77-90.637-17.77-90.637L58.746 9.82c-1.061-3.848-1.857-6.237-1.857-6.237l-38.456 14.73c0 31.053-17.24 154.734-17.24 154.734l49.861 7.033s5.703-54.01 9.416-95.282c14.056 48.04 37.793 83.073 47.34 89.045l36.336-29.859c0-.132-22.942-28.398-29.572-52.285z" transform="translate(-200 -7340) translate(200 7340) translate(256.133 163.929) translate(24.002)"/>
                        <path fill="#141414" d="M51.983 181.142L0 173.842l.133-.928c.132-1.195 17.239-124.079 17.239-154.6v-.664L57.42 2.256l.265 1.062s.663 2.123 1.591 5.44L97.467 0l.133 1.062c.133.663 11.14 67.015 17.77 90.637 6.63 23.356 29.306 51.49 29.439 51.754l.663.797-37.661 30.92-.663-.398c-9.15-5.574-31.826-38.352-46.28-84.666-3.714 40.077-8.885 89.708-9.018 90.24l.133.796zm-49.729-9.024l47.872 6.635c.796-7.697 5.835-56.532 9.283-94.22l.53-5.176 1.459 5.043c13.924 47.375 36.732 81.348 46.28 87.983l35.009-28.797c-3.713-4.777-23.207-30.124-29.307-51.755-6.232-22.028-16.178-81.215-17.637-89.708L57.817 10.75l-.265-.929c-.663-2.389-1.193-4.114-1.459-5.175L19.361 18.977C19.096 49.233 3.846 160.44 2.254 172.117z" transform="translate(-200 -7340) translate(200 7340) translate(256.133 163.929) translate(24.002)"/>
                    </g>
                    <g fill="#141414">
                        <path d="M2.624 5.678c-.398 0-.796-.266-.929-.664L.104 1.431C-.161.901.104.37.634.104c.53-.265 1.061 0 1.327.53.53 1.195 1.06 2.39 1.59 3.717.266.53 0 1.061-.53 1.327-.132-.133-.265 0-.397 0zM40.417 134.268c-.398 0-.663-.132-.928-.53-1.326-2.257-2.652-4.778-3.978-7.432-.266-.53 0-1.062.397-1.327.53-.265 1.061 0 1.326.398 1.327 2.654 2.653 5.043 3.979 7.299.265.53.132 1.061-.398 1.327-.133.133-.265.265-.398.265zm-7.691-14.995c-.398 0-.796-.266-.928-.531-1.194-2.522-2.255-5.043-3.448-7.697-.266-.53 0-1.062.53-1.327.53-.265 1.061 0 1.326.53 1.061 2.655 2.255 5.176 3.315 7.698.266.53 0 1.061-.53 1.327 0-.133-.133 0-.265 0zm-6.498-15.527c-.398 0-.796-.265-.928-.663-.929-2.522-1.724-5.176-2.652-8.095-.133-.531.132-1.062.663-1.195.53-.132 1.06.133 1.193.664.796 2.787 1.724 5.574 2.52 7.962.132.531-.133 1.062-.53 1.327 0-.132-.133 0-.266 0zm-4.641-16.19c-.398 0-.796-.265-.929-.796-.663-2.521-1.193-5.308-1.856-8.228-.133-.53.265-1.061.796-1.194.53-.133 1.06.265 1.193.796.663 2.92 1.193 5.707 1.857 8.228.132.53-.266 1.062-.796 1.194h-.265zm-3.448-16.588c-.53 0-.928-.398-.928-.796-.53-2.787-1.061-5.44-1.46-8.228-.132-.53.266-1.061.797-1.194.53-.133 1.06.265 1.193.796.53 2.787.928 5.574 1.459 8.228.132.53-.266 1.062-.796 1.194h-.265zM15.22 54.513c-.53 0-.928-.398-.928-.796-.53-2.787-1.06-5.574-1.459-8.228-.132-.53.266-1.062.796-1.194.53-.133 1.061.265 1.194.796.53 2.787 1.06 5.573 1.458 8.36.133.531-.265 1.062-.795 1.195-.266-.266-.266-.133-.266-.133zM12.04 37.925c-.398 0-.928-.266-.928-.796-.663-2.92-1.194-5.574-1.857-8.228-.133-.53.265-1.062.796-1.194.53-.133 1.06.265 1.193.796.663 2.654 1.194 5.308 1.857 8.228.132.53-.266 1.061-.796 1.194h-.265zM8.06 21.602c-.398 0-.796-.265-.929-.663-.795-2.787-1.591-5.441-2.52-7.963-.132-.53.133-1.061.664-1.327.53-.132 1.06.133 1.326.664.796 2.521 1.724 5.308 2.52 8.095.132.53-.133 1.062-.664 1.194-.132-.132-.265 0-.397 0zM47.18 144.487c-.265 0-.53-.133-.796-.266 0 0-.928-1.062-2.52-3.318-.264-.398-.264-1.061.266-1.327.398-.265 1.061-.265 1.326.266 1.459 2.123 2.255 3.052 2.387 3.052.398.398.265 1.062-.132 1.46 0 0-.266.133-.53.133z" transform="translate(-200 -7340) translate(200 7340) translate(256.133 163.929) translate(107.707 5.47)"/>
                    </g>
                    <path fill="#FFF" d="M35.141 188.971l-10.343-7.166c.265-.398.53-.663.795-1.062 3.448 2.39 6.896 4.778 10.211 7.034.663.53 0 1.592-.663 1.194zM29.174 193.483c-2.785-2.521-5.702-4.91-8.62-7.431.266-.266.663-.531.929-.93 2.784 2.522 5.702 4.91 8.62 7.3.662.796-.266 1.725-.93 1.061z" transform="translate(-200 -7340) translate(200 7340) translate(256.133 163.929)"/>
                    <path fill="#141414" d="M83.543 75.774c-.397 0-.795-.265-.928-.663-2.785-6.768-5.967-35.432-6.63-40.608-1.326-.133-4.642-.663-10.609-1.858-.53-.132-.928-.663-.796-1.194.133-.53.663-.929 1.194-.796 8.089 1.592 11.139 1.99 11.139 1.99l.796.133.132.796c0 .398 3.713 33.84 6.498 40.873.265.531 0 1.062-.53 1.327h-.266z" transform="translate(-200 -7340) translate(200 7340) translate(256.133 163.929)"/>
                </g>
                <g fill="#141414" fill-rule="nonzero">
                    <path d="M7.496 17.88c-.396 0-.792-.266-.924-.664L.104 1.431C-.16.9.104.369.632.104c.528-.265 1.056 0 1.32.53L8.42 16.42c.264.531 0 1.062-.528 1.327-.132.133-.264.133-.396.133zM20.168 15.227c-.528 0-.924-.398-.924-.929L17.528 1.165c-.132-.53.264-1.06.792-1.06.528-.134 1.056.264 1.056.795l1.716 13.133c.132.663-.264 1.06-.924 1.194zM35.084 193.38c-.66 0-1.056-.531-1.056-1.062l1.452-22.949c0-.53.528-.928 1.056-.928s.924.53.924 1.061l-1.452 22.949c.132.53-.396.929-.924.929zM63.068 181.839c-.396 0-.66-.133-.924-.53L54.62 167.91c-.264-.53-.132-1.061.396-1.326.528-.266 1.056-.133 1.32.398l7.524 13.398c.264.53.132 1.06-.396 1.326-.132.133-.264.133-.396.133z" transform="translate(-200 -7340) translate(200 7340) translate(148.82 133.09)"/>
                </g>
                <g fill-rule="nonzero">
                    <g>
                        <g>
                            <path fill="#FFF" d="M222.847 85.099H12.097c-9.833 0-14.75-11.967-7.707-18.881L67.11 4.122C69.236 2.127 71.894.931 74.817.931h210.75c9.833 0 14.75 11.967 7.707 18.881l-62.72 62.096c-1.993 2.127-4.784 3.19-7.707 3.19z" transform="translate(-200 -7340) translate(200 7340) translate(20.394 44.054) translate(0 154.251)"/>
                            <path fill="#141414" d="M222.847 86.163H12.097c-4.916 0-9.169-2.793-11.162-7.447-1.86-4.653-.93-9.573 2.658-13.163l62.72-62.096C68.572 1.197 71.628 0 74.817 0h210.75c4.917 0 9.169 2.792 11.162 7.446 1.86 4.654.93 9.574-2.658 13.164l-62.72 62.095c-2.259 2.26-5.315 3.458-8.504 3.458zM74.817 1.995c-2.657 0-5.182 1.063-7.043 2.925L5.054 67.015c-2.923 2.926-3.853 7.048-2.259 10.904 1.595 3.856 5.183 6.25 9.302 6.25h210.75c2.658 0 5.182-1.065 7.043-2.926l62.72-62.096c2.923-2.925 3.853-7.047 2.259-10.903-1.595-3.856-5.183-6.25-9.302-6.25H74.817z" transform="translate(-200 -7340) translate(200 7340) translate(20.394 44.054) translate(0 154.251)"/>
                        </g>
                        <path fill="#141414" d="M206.104 70.074L18.874 70.074 84.65 5.053 271.88 5.053z" transform="translate(-200 -7340) translate(200 7340) translate(20.394 44.054) translate(0 154.251)"/>
                        <g fill="#FFF">
                            <path d="M36.941 11.169L4.784 11.169 16.079 0 48.236 0zM72.022 32.045L43.585 32.045 53.551 22.073 82.121 22.073zM23.121 30.582L0 30.582 10.099 20.743 33.087 20.743z" transform="translate(-200 -7340) translate(200 7340) translate(20.394 44.054) translate(0 154.251) translate(66.18 31.513)"/>
                        </g>
                    </g>
                    <g fill="#FFCC3E" transform="translate(-200 -7340) translate(200 7340) translate(20.394 44.054) translate(91.693 125.23)">
                        <path d="M90.625 48.567c-19.4 0-36.277-5.053-42.256-12.632-.399-.399-.266-1.064.133-1.463.398-.399 1.063-.266 1.461.133C55.412 41.52 72.155 46.44 90.625 46.44c22.989 0 42.39-7.579 42.39-16.488 0-.531.398-1.063 1.062-1.063.665 0 1.063.399 1.063 1.063-.133 10.505-19.666 18.616-44.515 18.616zM52.754 22.372c-.266 0-.665-.133-.797-.399-.266-.398-.266-1.063.265-1.33 6.512-4.52 17.408-7.711 30.032-8.642 2.657-.266 5.448-.266 8.238-.266.532 0 1.063.399 1.063 1.064s-.398 1.063-1.063 1.063c-2.79 0-5.448.133-8.106.266-12.358.931-22.855 3.99-29.1 8.377-.133-.133-.266-.133-.532-.133z"/>
                        <path d="M126.636 53.62c-.399 0-.797-.266-.93-.798s.133-1.064.664-1.197c5.315-1.33 10.1-3.058 14.218-4.92 10.232-4.654 15.813-10.637 15.813-16.754 0-14.227-29.5-25.795-65.776-25.795-18.338 0-35.48 2.925-48.103 8.244-.531.266-1.063 0-1.329-.532s0-1.064.532-1.33c12.89-5.451 30.164-8.377 48.767-8.377 38.004 0 67.77 12.233 67.77 27.79 0 6.915-5.98 13.43-17.01 18.483-4.251 1.994-9.168 3.59-14.483 5.053 0 .133-.133.133-.133.133zM90.625 57.875c-3.853 0-7.574-.133-11.295-.4-32.689-2.26-56.474-13.828-56.474-27.524 0-.531.398-1.063 1.063-1.063.664 0 1.063.399 1.063 1.063 0 12.366 23.52 23.403 54.614 25.53 3.72.266 7.441.399 11.162.399.531 0 1.063.399 1.063 1.064s-.664.93-1.196.93zM102.319 57.476c-.532 0-.93-.4-.93-.931 0-.532.398-1.064.93-1.064 5.714-.399 11.427-1.197 16.61-2.127.531-.133 1.063.266 1.196.797.133.532-.266 1.064-.798 1.197-5.448.93-11.029 1.729-17.008 2.128.133 0 0 0 0 0z"/>
                        <path d="M114.278 65.853c-.532 0-.93-.4-.93-.931 0-.532.398-1.064.93-1.064 30.961-3.457 54.88-13.164 62.587-25.663 1.595-2.659 2.392-5.318 2.392-8.11 0-4.92-1.86-9.308-5.448-12.234-.399-.398-.532-.93-.133-1.462.399-.4.93-.532 1.462-.133 3.986 3.324 6.245 8.244 6.245 13.828 0 3.192-.93 6.25-2.79 9.175-8.106 12.898-32.69 23.003-64.315 26.594 0-.133 0 0 0 0zM5.847 19.314c-.266 0-.399-.133-.665-.266-.398-.399-.398-.93-.133-1.462C11.162 10.538 22.191 4.555 36.941.034c.532-.133 1.063.133 1.196.665s-.133 1.063-.664 1.196C22.988 6.15 12.358 12.001 6.51 18.782c-.133.4-.398.532-.664.532zM40.927 61.066h-.265C15.148 54.284 0 42.716 0 30.084c0-.531.399-1.063 1.063-1.063.664 0 1.063.399 1.063 1.063 0 11.569 14.617 22.472 39.2 28.987.532.133.797.665.665 1.197-.266.532-.665.798-1.064.798z"/>
                        <ellipse cx="90.625" cy="30.084" rx="21.527" ry="8.643"/>
                    </g>
                    <g>
                        <g>
                            <path fill="#FFF" d="M111.364 1.33c-25.38 8.11-37.206 40.688-43.186 49.463C53.295 72.334 15.956 75.126 6.654 83.37c-8.77 7.712-3.056 12.233-3.056 12.233s-1.064 4.521 2.259 6.649c0 0-7.176 7.579-3.721 10.903 3.322 3.324 13.952-10.77 18.603-11.568l1.33 3.191c-.4 1.995-5.715 6.382-3.19 8.909 2.392 2.66 11.295-6.25 13.687-9.175 2.392-2.925 6.91-2.26 11.56-6.648 4.651-4.388 25.912-3.059 40.263-17.95 14.219-14.893 35.745-59.57 35.745-59.57l-8.77-19.014z" transform="translate(-200 -7340) translate(200 7340) translate(20.394 44.054) translate(178.72 39.235)"/>
                            <path fill="#141414" d="M19.81 115.016c-.931 0-1.596-.398-1.994-.797-2.26-2.394 0-5.452 1.594-7.712.532-.665 1.063-1.463 1.33-1.995l-.798-1.994c-1.728.797-4.385 3.19-6.777 5.318-4.784 4.255-9.302 8.377-11.96 5.718-3.321-3.324 1.064-9.175 3.057-11.435-2.126-2.128-1.993-5.186-1.86-6.383-.665-.665-1.595-2.127-1.728-4.255 0-2.925 1.728-5.983 5.183-9.041 3.454-3.059 10.63-5.32 18.869-8.111 14.75-4.787 33.22-10.77 42.522-24.333 1.196-1.729 2.657-4.654 4.518-7.845 7.042-13.164 18.736-35.37 39.2-41.885l.797-.266 9.036 20.078-.133.399c-.93 1.861-21.66 45.076-35.878 59.835-9.435 9.84-21.792 12.632-30.696 14.76-4.385 1.063-8.105 1.861-9.567 3.19-2.658 2.527-5.315 3.458-7.441 4.256-1.728.664-3.057 1.196-3.987 2.26 0 .399-8.637 10.106-13.288 10.238.133 0 0 0 0 0zm1.46-14.759l1.728 4.122v.266c-.133.798-.93 1.862-1.727 2.925-1.595 2.26-2.79 4.122-1.86 5.186 0 0 .132.133.531.133 2.658 0 8.903-5.984 11.694-9.308 1.328-1.462 3.056-2.127 4.916-2.925 1.993-.798 4.385-1.596 6.644-3.856 1.86-1.729 5.448-2.526 10.498-3.723 8.77-1.995 20.73-4.787 29.765-14.228 13.288-13.828 33.088-54.383 35.347-58.904l-7.84-17.552c-19.268 6.649-30.43 27.923-37.207 40.688-1.86 3.457-3.322 6.25-4.518 8.111-9.7 14.095-28.57 20.211-43.585 25.131-7.973 2.66-14.883 4.92-18.072 7.712-3.056 2.66-4.65 5.186-4.518 7.446 0 1.995 1.462 3.192 1.462 3.192l.531.398-.133.665s-.797 3.856 1.728 5.585l1.063.665-.797.93c-1.728 1.73-5.98 7.314-3.854 9.441 1.329 1.33 6.113-3.058 9.169-5.85 3.189-2.926 6.245-5.585 8.504-5.984l.532-.266z" transform="translate(-200 -7340) translate(200 7340) translate(20.394 44.054) translate(178.72 39.235)"/>
                        </g>
                        <g fill="#0079FE">
                            <path d="M21.793 60.766c1.594 1.064 3.189 2.127 4.65 3.058 12.093-18.881 24.052-44.012 24.052-44.012L42.123.931C19.533 8.11 7.707 34.704 1.196 46.67c7.043 4.388 13.82 9.574 20.597 14.095z" transform="translate(-200 -7340) translate(200 7340) translate(20.394 44.054) translate(178.72 39.235) translate(69.24 .266)"/>
                            <path d="M26.842 65.287l-.797-.532c-1.595-1.064-3.057-2.128-4.651-3.058-2.923-1.862-5.714-3.856-8.505-5.85-3.853-2.793-7.972-5.585-12.092-8.112L0 47.203l.399-.798c.664-1.33 1.461-2.659 2.259-4.254C9.7 28.987 21.394 6.78 41.858.266L42.655 0l9.036 20.078-.133.399c-.133.266-12.225 25.397-24.184 44.012l-.532.798zM2.525 46.405c3.853 2.394 7.707 5.053 11.295 7.713 2.79 1.994 5.714 3.989 8.504 5.85 1.329.798 2.525 1.729 3.854 2.527 10.896-17.153 21.66-39.226 23.254-42.55l-7.84-17.552C22.324 9.042 11.162 30.316 4.385 43.081c-.664 1.197-1.196 2.26-1.86 3.324z" transform="translate(-200 -7340) translate(200 7340) translate(20.394 44.054) translate(178.72 39.235) translate(69.24 .266)"/>
                        </g>
                        <path fill="#141414" d="M13.298 95.204c-2.924 1.33-5.315 3.325-7.441 5.718-.532.665.398 1.596.93.93 1.993-2.393 4.385-4.254 7.175-5.584.798-.266.133-1.463-.664-1.064zM10.374 89.22c-2.79.799-5.049 2.527-6.644 4.92-.398.665.665 1.33 1.196.665 1.33-2.127 3.455-3.723 5.847-4.387.665-.133.399-1.463-.399-1.197z" transform="translate(-200 -7340) translate(200 7340) translate(20.394 44.054) translate(178.72 39.235)"/>
                    </g>
                    <g>
                        <g fill="#0079FE">
                            <path d="M21.749 2.386C8.328 6.906-1.506 14.086 1.418 52.647c2.923 38.56 2.392 50.395 2.392 50.395l86.372-12.233S65.068-12.108 21.75 2.386z" transform="translate(-200 -7340) translate(200 7340) translate(20.394 44.054) translate(268.336 38.179)"/>
                            <path d="M2.88 104.238v-1.196c0-.133.398-12.233-2.392-50.262C-2.436 12.89 8.195 5.976 21.483 1.455l.266.93-.266-.93C28.924-1.071 36.366-.274 43.54 3.582c30.164 16.621 47.04 84.036 47.705 86.96l.265 1.065L2.88 104.238zM30.12 1.987c-2.658 0-5.315.399-7.973 1.33-12.89 4.387-22.59 10.77-19.666 49.33 2.392 31.646 2.525 45.475 2.392 49.331l84.114-11.967c-2.26-8.776-19.003-69.542-46.376-84.567-4.12-2.26-8.239-3.457-12.49-3.457z" transform="translate(-200 -7340) translate(200 7340) translate(20.394 44.054) translate(268.336 38.179)"/>
                        </g>
                        <path fill="#141414" d="M1.816 59.695c-.531 0-.93-.4-.93-.931L.09 36.026c0-.531.399-1.063.93-1.063.532 0 1.063.399 1.063.93l.797 22.738c0 .665-.398 1.064-1.063 1.064.133 0 0 0 0 0z" transform="translate(-200 -7340) translate(200 7340) translate(20.394 44.054) translate(268.336 38.179)"/>
                    </g>
                    <g>
                        <g>
                            <path fill="#FFF" d="M81.59 57.173C67.901 22.603 34.017-7.183 1.594 3.056c0 0 32.556 34.704 46.907 53.719 10.232 13.562 18.603 41.22 23.121 57.441-8.77 9.574-5.448 27.923-3.588 28.455 5.316 1.729 5.98-9.972 5.98-9.972l1.993-1.064c.797 4.787 1.595 10.77 3.72 12.499 3.19 2.526 6.38-1.197 6.38-1.197 3.853 1.729 7.706-1.064 7.706-1.064 18.072-1.196 1.462-50.128-12.225-84.7z" transform="translate(-200 -7340) translate(200 7340) translate(20.394 44.054) translate(288.358 37.509) translate(.133)"/>
                            <path fill="#141414" d="M82.12 146.128c-.93 0-1.993-.265-2.923-1.063-2.259-1.862-3.189-7.048-3.853-11.701l-.266.133c-.133 1.994-.93 7.845-3.854 9.84-1.063.664-2.259.797-3.455.398-.531-.133-1.328-.798-1.993-3.59-1.196-4.521-2.524-17.818 4.784-26.195-7.707-27.657-15.281-46.671-22.723-56.51C33.752 38.69 1.33 4.12 1.063 3.853L0 2.657l1.462-.532C34.549-8.379 68.7 21.671 82.652 56.775c17.94 45.075 23.919 72.733 17.94 82.306-1.463 2.26-3.589 3.59-6.38 3.856-.93.532-4.251 2.394-7.706 1.197-1.196 1.064-2.658 1.994-4.385 1.994zm-5.315-15.956l.266 2.128c.665 4.122 1.462 9.84 3.322 11.302 2.392 1.862 4.917-.93 4.917-1.064l.531-.532.665.266c3.189 1.463 6.644-.93 6.644-.93l.266-.133h.265c2.26-.133 3.987-1.197 5.05-3.059 3.853-6.249 3.853-25.263-18.072-80.445C67.238 23.932 34.948-5.055 3.455 3.721c5.847 6.25 33.22 35.768 45.844 52.522 7.574 10.105 15.414 29.518 23.254 57.707l.133.532-.399.4c-8.105 8.775-5.448 25.13-3.853 26.991.664.133 1.063.133 1.594-.265 2.127-1.463 2.924-7.048 2.924-8.91v-.531l3.853-1.995z" transform="translate(-200 -7340) translate(200 7340) translate(20.394 44.054) translate(288.358 37.509) translate(.133)"/>
                        </g>
                        <g fill="#0079FE">
                            <path d="M53.418 42.9c4.784-3.59 9.17-7.446 13.687-11.302C50.362 9.658 25.646-4.569 1.727 3.01c0 0 25.912 27.525 41.592 46.938 3.455-2.26 6.777-4.654 10.1-7.047z" transform="translate(-200 -7340) translate(200 7340) translate(20.394 44.054) translate(288.358 37.509) translate(0 .045)"/>
                            <path d="M43.186 51.41l-.531-.664C27.108 31.598 1.329 4.074 1.063 3.808L0 2.612l1.462-.532C23.387-4.968 48.9 6.202 67.902 30.934l.532.797-.665.665c-.93.798-1.86 1.596-2.923 2.394-3.455 3.058-7.175 6.116-10.896 8.908-2.924 2.26-6.113 4.521-10.1 7.18l-.664.532zM3.588 3.542c5.05 5.452 26.177 28.322 39.997 45.21 3.588-2.527 6.511-4.522 9.302-6.65 3.72-2.792 7.308-5.85 10.763-8.775.665-.665 1.462-1.197 2.126-1.862C51.558 13.25 28.038-3.239 3.588 3.542z" transform="translate(-200 -7340) translate(200 7340) translate(20.394 44.054) translate(288.358 37.509) translate(0 .045)"/>
                        </g>
                        <path fill="#141414" d="M85.31 127.912c-.266-.798-1.595-.532-1.329.399 1.329 4.388 1.727 8.776 1.063 13.297-.133.797 1.196.797 1.329 0 .797-4.654.399-9.175-1.063-13.696zM93.416 125.917c-.266-.797-1.462-.531-1.33.4 1.197 4.52 1.462 9.174 1.064 13.828-.133.798 1.196.798 1.329 0 .531-4.92.133-9.574-1.063-14.228zM39.599 46.536c-.266 0-.665-.133-.798-.399C31.76 36.83 28.702 32.31 28.57 32.31c-.265-.4-.265-1.064.266-1.33.399-.266 1.063-.266 1.33.266 0 0 3.188 4.52 10.098 13.828.399.4.266 1.064-.133 1.463-.133-.133-.266 0-.531 0z" transform="translate(-200 -7340) translate(200 7340) translate(20.394 44.054) translate(288.358 37.509)"/>
                    </g>
                    <g transform="translate(-200 -7340) translate(200 7340) translate(20.394 44.054) translate(243.277)">
                        <g>
                            <path fill="#FFF" d="M43.554 10.861c-.133-4.653-4.784-7.446-9.966-4.92-.798.4-1.462.931-2.26 1.596l-.132-.133c-7.309-7.712-18.87-8.776-25.78-2.26-6.909 6.515-5.314 17.02.532 25.928 5.449 7.978 16.743 12.233 25.78 2.26 2.923-3.323 4.65-7.711 4.783-12.232 4.917-1.463 7.176-6.117 7.043-10.239z" transform="translate(8.304 7.365)"/>
                            <path fill="#141414" d="M20.034 40.247H18.97c-5.315-.399-10.365-3.59-13.687-8.51-6.91-10.238-7.043-20.876-.399-27.125 7.176-6.781 19.002-5.984 26.577 1.729.531-.4 1.196-.798 1.727-1.064 2.79-1.463 5.714-1.463 7.973-.133 1.993 1.197 3.322 3.324 3.322 5.85.133 3.99-1.993 9.042-7.043 11.037-.265 4.52-1.993 8.775-4.916 12.1-4.385 4.92-9.036 6.116-12.491 6.116zM16.712 1.953c-3.854 0-7.574 1.33-10.498 3.989-7.175 6.781-4.12 17.418.665 24.599 3.056 4.52 7.574 7.313 12.225 7.579 4.385.266 8.504-1.596 11.959-5.452 2.79-3.058 4.385-7.18 4.518-11.568v-.665l.664-.266c4.385-1.463 6.379-5.85 6.246-9.308 0-1.728-.93-3.324-2.392-4.122-1.728-1.063-3.987-.93-6.113.133-.664.4-1.328.798-2.126 1.463L31.196 9l-.665-.665c-3.72-4.255-8.903-6.382-13.82-6.382z" transform="translate(8.304 7.365)"/>
                        </g>
                        <ellipse cx="24.483" cy="29.112" fill="#141414" rx="1.33" ry="1.329" transform="rotate(-65.878 24.483 29.112)"/>
                        <path fill="#141414" d="M21.295 39.9c-1.728-2.394-3.056-5.053-4.12-7.845-.265-.798.93-1.33 1.197-.532.93 2.659 2.258 5.185 3.853 7.579.664.665-.399 1.462-.93.798zM11.993 23.678c3.987-1.463 16.212-12.1 20.863-4.388 1.196 1.994 1.196 3.59 3.454 3.058 2.127-.93 1.728-3.59 1.728-3.59 1.595-2.26 2.126-4.521 3.854-5.452C46.675 5.594 34.849-3.98 28.205 1.738c0 0-14.75-3.59-19.002 5.585C1.628 10.38-1.162 16.23.433 21.683c2.923 9.308 11.56 1.995 11.56 1.995zM40.961 22.88c-.133-3.191 1.86-5.984 4.917-6.914.797-.266 1.329 1.063.531 1.196-2.391.665-4.119 2.926-3.986 5.452 0 1.064-1.329 1.197-1.462.266z"/>
                    </g>
                    <g fill="#FFCC3E">
                        <path d="M17.706 18.782c-.265 0-.531-.133-.664-.266L.299 1.762C-.1 1.362-.1.698.299.299S1.362-.1 1.761.3l16.743 16.754c.398.399.398 1.064 0 1.463-.266.133-.532.266-.798.266z" transform="translate(-200 -7340) translate(200 7340) translate(20.394 44.054) translate(166.073 198.496)"/>
                        <path d="M1.096 18.782c-.265 0-.531-.133-.664-.266-.399-.4-.399-1.064 0-1.463L17.175.299c.399-.399 1.063-.399 1.462 0 .398.4.398 1.064 0 1.463L1.894 18.516c-.4.133-.532.266-.798.266z" transform="translate(-200 -7340) translate(200 7340) translate(20.394 44.054) translate(166.073 198.496)"/>
                    </g>
                </g>
            </g>
        </g>
    </g>
</svg>
